<svg version="1.1" id="Layer_1" xmlns="http://www.w3.org/2000/svg" xmlns:xlink="http://www.w3.org/1999/xlink" x="0px" y="0px"
	 width="100%" viewBox="0 0 1024 1024" enable-background="new 0 0 1024 1024" xml:space="preserve">
<path fill="#000000" opacity="1.000000" stroke="none" 
	d="
M646.552124,467.309296 
	C660.574097,479.448608 666.018066,495.342834 667.993469,513.515381 
	C684.367310,497.553223 702.907776,490.012665 724.426880,491.471741 
	C725.941528,494.576019 723.447876,495.124817 723.575928,496.703491 
	C726.983887,498.874298 731.427551,497.822479 734.984741,500.225403 
	C733.241638,504.301056 728.182129,503.697571 725.840149,507.168243 
	C733.039246,511.646271 741.952515,513.349060 747.164124,520.184631 
	C745.968994,522.938293 743.997559,521.103333 742.430054,522.545105 
	C755.730713,544.319458 762.199890,568.275330 763.149414,594.443787 
	C770.275085,583.112549 780.189941,576.927185 793.721252,575.771057 
	C791.223022,571.819763 787.601807,571.340210 785.338928,568.994324 
	C781.957581,565.488892 780.088989,562.411743 783.513245,557.741516 
	C786.790649,553.271606 784.264709,549.248535 781.523193,545.451904 
	C777.359924,539.686401 777.359497,539.570190 784.385132,537.494751 
	C792.206604,535.184265 800.062988,532.981140 807.956543,530.932983 
	C810.101501,530.376343 812.399292,529.199768 815.344849,531.058960 
	C811.625671,541.407715 802.194580,548.296448 797.927551,558.247009 
	C799.138306,560.631348 801.474548,560.829285 803.442017,561.511353 
	C811.529114,564.315063 819.178162,567.921326 825.847839,573.376892 
	C827.802979,574.976074 830.056763,576.765564 828.739258,579.601990 
	C827.474670,582.324524 824.662659,581.420044 822.467773,581.068237 
	C810.992126,579.228699 799.613647,578.408081 788.600891,583.316528 
	C786.060791,584.448669 783.489868,585.555847 781.370422,588.338379 
	C793.447327,594.120483 807.331604,592.126953 818.891541,598.852478 
	C817.130676,602.476135 814.267029,602.087280 811.757019,602.238770 
	C800.949890,602.891113 790.137817,603.612427 779.304260,603.258545 
	C776.219421,603.157776 774.176575,604.109802 773.155212,607.104553 
	C772.781982,608.199036 772.287964,609.308350 771.608154,610.233948 
	C762.014343,623.295593 763.788818,636.984070 768.983521,651.057495 
	C774.963989,667.259583 781.671875,682.981995 794.493042,695.189575 
	C797.066345,697.639709 797.363953,700.117004 795.523926,703.177002 
	C792.018433,709.006714 789.318237,715.463501 782.508179,718.477173 
	C779.192322,719.944580 780.523315,722.154480 781.731384,724.222534 
	C785.282043,730.300537 790.144348,735.386597 794.492676,740.855286 
	C806.065247,755.409668 815.235962,771.121094 817.715210,789.906799 
	C819.424377,802.857666 816.842102,815.396240 813.392700,827.851807 
	C807.632568,848.650940 800.723022,869.033569 788.882263,887.201843 
	C770.653320,915.171936 744.759277,933.972229 714.485901,947.149109 
	C682.465698,961.086304 648.595093,968.157166 614.404358,974.057190 
	C579.534607,980.074402 544.403809,983.739624 509.039246,982.884644 
	C475.250702,982.067688 441.604980,978.880127 408.148041,973.619934 
	C383.745514,969.783264 359.632202,965.006897 336.204376,957.109497 
	C308.105347,947.637390 282.443420,934.048706 260.616730,913.529297 
	C236.584167,890.936035 223.337784,863.126892 217.454208,830.963562 
	C212.714630,805.053894 215.210144,780.348267 225.370575,756.187500 
	C230.406952,744.211365 237.940079,733.882568 245.787460,723.712402 
	C246.894135,722.278137 247.913162,720.776245 248.873657,719.443237 
	C248.393112,717.743225 247.129883,717.608459 246.044922,717.347778 
	C238.741318,715.593811 234.021469,710.606995 229.861496,704.769470 
	C227.569717,701.553528 227.946350,698.959106 230.872681,696.519897 
	C234.582092,693.427917 238.364273,690.414185 241.500671,686.700745 
	C255.577927,670.033447 263.335205,650.693420 265.789215,629.129578 
	C266.278198,624.833008 266.708252,620.521484 266.932953,616.204834 
	C267.302032,609.113525 264.618652,605.806702 257.681091,604.289856 
	C251.589203,602.958008 245.411072,603.403320 239.281418,603.219177 
	C237.664383,607.639465 234.094391,609.371460 228.324753,609.050476 
	C223.932861,608.806152 222.486221,606.201721 221.581741,602.399109 
	C220.857101,599.352478 222.422699,598.066345 224.571655,596.891296 
	C230.965866,593.395264 238.110626,592.375610 245.074707,590.788208 
	C247.608612,590.210632 250.204041,589.902893 254.204544,589.231506 
	C242.888077,583.226013 232.685623,578.996887 220.879608,580.764893 
	C218.384094,581.138611 215.068359,582.867676 213.581207,580.097900 
	C212.180099,577.488342 214.407074,574.710999 216.119904,572.454407 
	C220.301285,566.945740 225.527863,562.594360 231.371048,558.931274 
	C232.742386,558.071594 234.478638,557.632935 235.542282,555.474731 
	C228.477783,547.154175 220.315720,539.215881 216.721359,528.201172 
	C222.657074,525.906555 260.597168,534.303955 263.586334,538.602173 
	C260.476868,539.466003 257.455872,540.124939 254.566437,541.153503 
	C250.948441,542.441345 247.602509,544.450623 248.266510,548.970886 
	C249.665726,558.496399 249.466156,567.595886 241.515793,576.223083 
	C250.550323,577.249756 257.604889,579.799194 263.787903,584.564514 
	C269.872253,589.253784 274.574432,595.303528 280.767761,601.644470 
	C283.995941,572.493774 290.415192,545.375061 308.110748,522.311584 
	C305.761658,520.300537 303.052277,522.533142 300.279602,519.741150 
	C306.275055,512.883911 315.311737,510.236542 322.343170,504.690704 
	C319.253174,503.333130 316.321014,505.310181 313.387024,504.411652 
	C320.063934,493.931641 341.067993,490.098846 357.125488,494.045990 
	C369.917755,497.190491 384.817963,509.435944 384.834351,517.847778 
	C374.295197,514.067078 363.902588,511.097931 352.817627,514.944580 
	C342.135101,518.651550 333.606567,525.310242 325.006348,532.899658 
	C327.550873,534.302856 330.324402,532.810425 333.210724,535.069092 
	C327.817749,541.296509 318.621643,543.371948 315.209686,551.435730 
	C315.473297,553.038025 318.109650,552.314697 318.258575,555.070618 
	C313.895599,559.399475 307.016571,561.609375 302.679230,567.388367 
	C307.659180,570.617004 314.146393,568.135315 319.025238,572.455750 
	C315.864532,576.542847 311.352417,578.380249 307.346985,580.800903 
	C301.705383,584.210327 301.652100,584.096252 304.933929,589.727051 
	C324.463959,623.235718 352.020935,647.480957 387.756927,662.771545 
	C419.299774,676.268005 452.176270,684.137390 486.157349,687.594360 
	C520.366394,691.074463 554.302979,688.767151 588.007263,681.995300 
	C622.086426,675.148132 654.600403,664.413635 683.992859,645.318176 
	C701.792236,633.754333 716.145508,618.969238 726.782227,600.615906 
	C733.216797,589.513306 736.153259,577.197876 738.830566,564.810242 
	C739.563293,561.419739 736.475525,560.685181 734.753967,559.219116 
	C731.604980,556.537415 729.235901,554.052856 733.726074,550.236206 
	C728.716553,545.446167 722.080872,543.215576 717.984009,538.053528 
	C718.678101,535.128601 721.901733,536.068237 723.022827,534.150818 
	C715.235229,519.165588 693.632446,510.805786 676.949219,516.047119 
	C670.766724,517.989441 666.140015,520.467102 664.458740,527.716064 
	C662.996582,534.019958 658.811340,539.308716 653.551880,543.499512 
	C645.760925,549.707275 637.020996,550.208130 628.635925,546.119995 
	C612.300659,538.155823 603.632507,524.213440 600.723755,506.551697 
	C599.143433,496.956146 600.056763,487.600189 604.626038,478.855194 
	C613.422241,462.020416 629.817322,457.418945 646.552124,467.309296 
M391.632629,942.221191 
	C392.709808,940.024719 392.605743,937.777893 392.268494,935.396606 
	C391.475769,929.799744 390.519836,924.201416 390.763092,918.510010 
	C390.944885,914.256775 390.112732,908.988586 395.804108,907.967407 
	C401.279968,906.984863 402.344574,912.081848 403.849487,915.876465 
	C407.776093,925.777344 410.726593,936.067566 415.594940,945.589050 
	C416.680450,947.712097 417.496552,950.254028 420.343323,951.019958 
	C422.274017,948.781311 422.637390,946.349854 422.339050,943.531433 
	C421.485107,935.464783 418.521606,928.040649 415.684418,920.573914 
	C414.016815,916.185120 412.727295,911.737305 412.615936,907.006958 
	C412.570404,905.074768 412.900940,903.272949 414.793701,902.315430 
	C416.756470,901.322510 418.730621,901.629272 420.435333,902.938660 
	C421.614532,903.844543 422.739349,904.886108 423.666962,906.044434 
	C432.478821,917.047913 439.743164,928.886719 443.568970,942.627075 
	C444.836151,947.178162 445.849274,951.955200 449.949738,955.455017 
	C453.824554,952.229736 453.932312,948.235840 453.325378,944.014771 
	C451.461151,931.049011 444.985046,919.867798 439.539612,908.284180 
	C438.593567,906.271667 436.787567,904.486206 437.561157,901.682739 
	C447.535187,901.006958 456.097168,903.319580 461.788361,912.238953 
	C466.092468,918.984497 470.082214,925.906555 473.117279,933.340149 
	C473.845154,935.122925 474.024109,937.278259 476.123108,938.249329 
	C478.175140,937.695740 478.305817,935.946411 478.768036,934.376892 
	C480.147614,929.692688 479.312134,925.028381 478.064484,920.584106 
	C474.306488,907.198120 466.095093,898.087280 452.041626,895.182617 
	C446.699738,894.078552 442.210602,892.678772 441.910767,885.814636 
	C441.518890,876.844177 440.098907,867.915283 439.788147,858.945374 
	C439.086029,838.680542 441.612915,818.690674 446.873566,799.151428 
	C450.797607,784.576721 456.825500,770.864990 467.122345,759.443237 
	C468.274445,758.165283 469.040131,756.108643 471.557465,756.975281 
	C472.600677,758.222778 472.279907,759.781372 472.182098,761.215637 
	C471.117371,776.823669 474.017456,792.048950 476.488312,807.326660 
	C479.092621,823.429443 481.584900,839.520569 481.477142,855.942322 
	C481.404053,867.085938 482.419830,878.232971 481.358063,889.384094 
	C481.172760,891.330322 481.031525,893.339722 482.973572,894.834045 
	C489.339783,899.732239 494.735474,905.616455 500.063446,911.600769 
	C503.922089,915.934753 513.233887,914.561401 515.653503,909.432800 
	C517.967407,904.527954 521.196106,900.361023 524.987000,896.557556 
	C526.384338,895.155457 527.723389,893.872864 527.307922,891.418579 
	C524.441833,874.489136 522.771240,857.430176 522.464905,840.260376 
	C522.161316,823.241760 522.782227,806.266174 527.839233,789.848938 
	C529.278442,785.176514 527.863708,783.561707 523.476440,782.694946 
	C512.723083,780.570679 501.865143,785.863586 494.384827,797.097900 
	C493.367645,798.625549 493.000885,800.876160 490.673828,801.394714 
	C487.607208,791.218262 502.168396,765.864868 513.458862,761.603210 
	C515.191101,763.429016 515.299011,767.535400 519.817749,765.722473 
	C531.679199,760.963684 544.485718,758.506165 555.223755,751.019470 
	C556.107666,750.403259 557.080933,749.411133 558.660156,750.943420 
	C555.940735,760.436035 547.097107,764.152710 539.629211,769.770874 
	C545.520569,774.814819 549.202271,780.953674 552.076111,787.517944 
	C566.365295,820.156433 571.156677,854.165100 566.733826,889.538330 
	C566.223389,893.620789 564.852966,895.078003 560.735413,895.596680 
	C537.743896,898.493408 529.314087,916.569641 531.498962,937.282776 
	C531.612244,938.356567 531.800049,939.653015 533.730103,940.022400 
	C538.525146,933.924744 541.244568,926.570374 544.137573,919.372009 
	C546.731323,912.918274 551.194519,908.136780 556.516968,904.022888 
	C558.398865,902.568237 560.409424,900.809998 563.702271,901.903198 
	C562.354065,910.567505 561.359253,919.252319 561.204285,928.014954 
	C561.049561,936.763977 558.976257,945.567444 561.414062,954.629028 
	C565.506592,952.894592 565.736389,949.621582 566.534058,946.885437 
	C570.319702,933.899536 570.981323,920.333435 573.705566,907.141785 
	C574.351929,904.012146 575.491150,901.785645 579.078796,901.792358 
	C582.742493,901.799255 583.904907,904.130493 584.245422,907.274902 
	C585.540588,919.233765 585.722351,931.191101 584.605713,943.185364 
	C584.263367,946.863159 583.399963,950.716797 585.313599,954.308533 
	C588.310730,954.298096 589.059143,952.187012 589.969788,950.233582 
	C593.418945,942.834778 594.198975,934.897339 594.728638,926.901672 
	C595.113647,921.089905 595.434692,915.269043 596.046875,909.480042 
	C596.244385,907.612488 596.617432,905.267822 599.143372,904.876587 
	C601.573181,904.500122 603.298523,905.895691 604.515076,907.821289 
	C605.945068,910.084778 606.937439,912.549866 607.443115,915.208069 
	C608.736389,922.006165 608.163269,928.813477 607.581909,935.617920 
	C607.340088,938.447693 607.114258,941.227783 609.192566,943.379822 
	C611.056702,943.550476 611.876465,942.458313 612.718384,941.424683 
	C620.595337,931.754395 620.943665,911.657776 613.098389,901.953125 
	C611.194519,899.598022 610.909119,898.061279 612.474731,895.462646 
	C621.540466,880.414978 628.102600,864.165588 634.074890,847.745850 
	C645.487305,816.369080 653.730835,784.158630 656.916870,750.829163 
	C658.551514,733.728638 659.324219,716.604248 654.931946,699.690063 
	C653.155762,692.850281 653.074829,692.672791 646.193115,694.071350 
	C615.624817,700.283325 584.718018,703.603943 553.591736,705.320679 
	C529.772766,706.634399 505.990570,706.355713 482.180389,705.233887 
	C464.870117,704.418396 447.647217,702.735901 430.467651,700.637207 
	C411.122162,698.273987 391.960663,694.789734 373.197693,689.421326 
	C368.708740,688.136902 366.204956,689.453857 365.080933,693.902405 
	C363.817963,698.900635 362.005737,703.801941 361.204620,708.867554 
	C357.947479,729.463440 359.484314,749.997864 362.233948,770.544006 
	C366.692688,803.860962 375.195801,836.134033 386.701721,867.649536 
	C390.391937,877.757324 394.518585,887.705750 398.383575,897.568909 
	C397.611572,898.760925 396.643616,898.975281 395.686249,899.287292 
	C389.970093,901.150146 385.093994,903.942444 382.597565,909.916443 
	C378.048859,920.801636 383.522308,934.495544 389.823883,942.543335 
	C390.019379,942.792908 390.733612,942.636353 391.632629,942.221191 
M756.644226,706.797180 
	C760.606567,705.496765 765.153320,706.568237 769.202393,704.034790 
	C755.389832,687.664001 749.523376,668.414307 746.461792,648.228516 
	C744.315430,648.039185 743.342590,649.023804 742.288452,649.774780 
	C735.236877,654.797668 728.384277,660.133179 721.081543,664.758362 
	C716.393250,667.727783 714.885315,671.270325 715.133667,676.684998 
	C716.359497,703.402405 714.442200,729.927063 708.775818,756.089539 
	C697.749878,806.997498 678.628601,854.669006 651.157837,898.965637 
	C650.187073,900.531006 648.347778,901.913086 649.232239,904.546631 
	C650.177917,904.546631 651.170776,904.683167 652.115051,904.526611 
	C674.352905,900.839355 696.118286,895.403015 716.874939,886.451843 
	C746.671753,873.602173 769.363586,853.233093 782.278870,823.058594 
	C786.988037,812.056396 790.979126,800.715027 788.961121,788.252197 
	C784.948730,763.472717 771.835022,743.866150 754.385864,726.658691 
	C753.248291,725.536926 751.565491,724.738953 751.747925,722.547913 
	C754.372864,720.208008 758.649292,720.794373 761.293945,717.893127 
	C757.945190,714.611206 753.494629,713.027527 751.050598,708.960876 
	C752.595215,707.550537 754.285950,707.390198 756.644226,706.797180 
M316.143738,787.154175 
	C313.493225,776.503235 311.071808,765.809692 309.094635,755.003296 
	C303.929108,726.770203 303.007935,698.374512 307.227081,670.052734 
	C308.509735,661.442566 307.241425,656.128235 299.587769,651.843018 
	C294.807648,649.166748 290.810150,645.092651 286.092957,641.353699 
	C278.459564,665.392212 269.454559,687.749451 250.347794,705.425232 
	C259.287079,706.253479 267.183044,707.064209 274.186035,710.385559 
	C275.062897,712.276428 272.538910,712.778442 273.275787,714.298401 
	C275.925079,715.901123 278.999237,712.538025 281.663544,714.696533 
	C281.330170,717.040771 279.685486,718.090088 278.344635,719.221741 
	C271.308685,725.160156 264.965118,731.690002 259.911194,739.443970 
	C244.476288,763.125000 239.813751,789.598145 240.560074,817.177429 
	C240.889038,829.334595 243.139526,841.416382 251.862411,851.080933 
	C258.477661,858.410339 265.741791,864.960999 273.923950,870.517822 
	C296.728943,886.005737 322.216339,895.017212 348.748779,901.407104 
	C353.267426,902.495361 358.014893,903.774536 362.718201,902.434753 
	C363.133636,900.610657 362.228241,899.534973 361.513184,898.454834 
	C351.531525,883.377075 344.266693,866.944397 337.348785,850.325317 
	C328.894257,830.014648 321.891235,809.226318 316.143738,787.154175 
M623.219238,481.620911 
	C613.510254,486.201660 612.461731,497.132294 621.022522,503.439575 
	C624.356628,505.896057 627.445068,505.679993 630.598206,503.395172 
	C634.492432,500.573364 635.745972,495.493958 634.013062,489.897552 
	C632.187927,484.003357 629.508118,481.754272 623.219238,481.620911 
z"/>
<path fill="#000000" opacity="1.000000" stroke="none" 
	d="
M946.767334,677.662598 
	C924.005371,725.059937 893.619080,766.462891 856.071106,802.660828 
	C851.621582,806.950317 846.865784,810.871765 841.455322,813.915222 
	C839.913696,814.782410 838.446106,816.138977 835.742676,815.058960 
	C836.304565,801.782043 834.437256,788.391357 832.522034,774.100464 
	C837.506592,776.008728 839.849976,773.568848 842.300415,771.293518 
	C861.998413,753.002502 877.474121,731.322449 892.166321,709.033203 
	C922.133057,663.571228 940.538513,613.530762 950.169250,560.186890 
	C953.387878,542.359009 954.922119,524.278381 955.950562,506.132477 
	C957.360962,481.248566 956.129028,456.468628 953.365784,431.847870 
	C949.717834,399.344879 942.122559,367.601379 930.700867,336.867126 
	C909.199768,279.010071 876.551453,228.367599 833.176758,184.406479 
	C795.941345,146.667587 753.804260,115.884727 706.330139,92.427757 
	C667.815430,73.397629 627.100098,61.216518 584.750122,54.311050 
	C558.230286,49.986816 531.538635,47.660480 504.682190,48.325092 
	C477.010803,49.009861 449.627594,52.548637 422.458038,57.897984 
	C384.515045,65.368484 348.092926,77.520294 313.108185,93.811119 
	C282.836884,107.907112 254.369247,125.155762 227.464920,145.005600 
	C179.988068,180.033722 139.915100,221.796570 109.973076,272.910583 
	C87.506561,311.263153 72.804039,352.408600 65.283119,396.181671 
	C60.390102,424.659912 58.381348,453.390869 58.475403,482.221130 
	C58.675663,543.603088 71.992279,602.029236 98.699829,657.419739 
	C115.999596,693.298767 138.621307,725.412048 165.351379,754.799561 
	C172.317184,762.457825 179.634216,769.716125 187.322815,776.623901 
	C193.076828,781.793457 193.186264,781.800781 199.405411,776.433960 
	C198.830734,790.563843 196.668365,803.946594 197.208038,818.177612 
	C189.446320,817.168518 183.701141,813.537476 178.328156,809.517090 
	C160.610825,796.260254 145.874954,779.931030 131.303406,763.421570 
	C103.631523,732.069458 81.261726,697.293091 64.149269,659.194885 
	C49.757477,627.153870 40.142250,593.598450 33.665310,559.100220 
	C28.271692,530.372131 25.661350,501.399048 26.054272,472.198700 
	C26.675171,426.055939 32.118824,380.572937 46.037064,336.375793 
	C61.276276,287.983856 85.144722,244.321304 117.134377,204.890732 
	C136.441162,181.093109 158.017151,159.682281 181.320801,139.951447 
	C230.782333,98.073158 286.021973,66.294724 347.265076,44.820953 
	C386.770416,30.969109 427.312195,21.997782 468.887543,18.146383 
	C504.769470,14.822404 540.627930,15.523602 576.496826,20.405689 
	C653.884583,30.938843 723.771851,59.950108 787.366028,104.594101 
	C845.311218,145.272461 892.702698,195.905777 928.039001,257.436157 
	C949.648438,295.064178 965.533508,335.056061 975.646545,377.284668 
	C981.078796,399.968048 985.150330,422.941986 986.928345,446.171875 
	C988.771118,470.247375 989.229370,494.423462 987.431091,518.566528 
	C985.051392,550.514771 980.336670,582.083740 971.242310,612.860962 
	C964.721680,634.927979 956.608643,656.429321 946.767334,677.662598 
z"/>
<path fill="#000000" opacity="1.000000" stroke="none" 
	d="
M254.005386,432.003357 
	C253.524246,451.535400 256.399780,470.052429 263.142212,487.855194 
	C268.267273,501.387390 276.118103,513.343384 285.626984,524.220520 
	C286.918793,525.698242 288.628662,526.925537 288.638214,529.911804 
	C281.092804,531.526672 273.454834,531.530151 265.791412,530.335205 
	C264.226410,530.091248 263.518768,528.466675 262.807922,527.145447 
	C247.049118,497.856201 235.943848,467.173950 236.937012,433.378632 
	C237.525238,413.362915 239.659515,393.469421 249.923340,375.494232 
	C259.177612,359.287109 273.355988,350.054260 291.184448,345.693848 
	C314.108154,340.087341 335.776764,344.477692 356.835144,353.714600 
	C359.170044,354.738770 360.859039,354.432281 362.847626,353.228546 
	C396.728424,332.720428 434.016052,323.128113 472.961365,318.646759 
	C525.050842,312.652893 575.564941,320.909241 625.369446,335.324799 
	C642.671448,340.332733 659.181030,347.577789 675.337524,355.501282 
	C680.487122,358.026733 684.532715,358.498108 690.025818,355.535400 
	C712.939270,343.177216 737.502808,340.556244 762.737610,346.104279 
	C789.260315,351.935455 809.279236,374.998840 813.437744,401.740540 
	C816.993591,424.606689 817.052612,447.161957 811.342468,469.626465 
	C806.264099,489.605621 797.593079,508.138031 788.219177,526.375244 
	C787.345825,528.074524 786.038330,529.365723 784.172302,529.873596 
	C776.524719,531.954956 768.771729,530.958130 761.071777,531.416382 
	C760.544556,527.780701 762.870483,526.488037 764.283447,524.812622 
	C781.056580,504.924835 792.846741,482.415253 796.992065,456.727386 
	C800.368896,435.801544 800.741089,414.589752 794.717896,393.826599 
	C789.868347,377.109131 777.926208,367.615814 761.785400,363.541077 
	C737.253296,357.348053 713.110107,359.890900 691.140320,372.242981 
	C683.247681,376.680481 678.392639,375.216370 671.491455,372.036163 
	C647.399780,360.934235 622.316467,352.471039 596.672302,345.690491 
	C595.244324,345.312927 593.743042,345.212555 591.394958,344.845398 
	C594.213806,350.226654 596.742004,355.053009 599.528259,360.372131 
	C596.477722,360.749908 595.540466,359.024353 594.498718,357.721436 
	C592.731262,355.510864 590.795166,353.342346 589.511169,350.855988 
	C586.087402,344.226044 580.404663,341.527802 573.396606,340.694885 
	C567.146301,339.952087 560.911133,339.080902 553.776306,338.149811 
	C556.995117,342.336212 560.300293,345.371338 562.285156,349.391937 
	C564.081116,353.029846 565.523254,356.703003 565.309387,360.841309 
	C565.241394,362.156525 565.403870,363.697845 563.713074,364.114655 
	C562.366699,364.446564 561.582214,363.354919 560.895447,362.422577 
	C558.623901,359.339020 556.412537,356.211243 554.159424,353.113983 
	C546.154175,342.109528 535.172424,337.025604 521.747131,336.019897 
	C511.728485,335.269409 501.783417,335.356415 491.818146,336.306366 
	C490.023071,336.477478 488.257324,336.956635 486.104645,337.364258 
	C487.028290,339.871857 488.996948,340.828674 490.673492,342.000427 
	C497.484375,346.760742 502.903625,352.798340 507.022827,359.971863 
	C508.212372,362.043304 510.270782,364.770996 507.679474,366.714111 
	C504.830597,368.850433 503.282501,365.613373 501.768646,363.860016 
	C496.650665,357.932495 491.650848,351.944427 485.458496,347.018463 
	C477.477081,340.669281 469.363190,337.182495 458.460541,339.113556 
	C426.247772,344.818909 395.018585,353.011963 366.910614,370.430756 
	C363.743866,372.393219 361.423523,372.278717 358.224854,370.798401 
	C341.154114,362.898285 323.163910,359.196686 304.356537,360.365143 
	C278.640839,361.962830 260.914734,378.629120 256.247406,405.163483 
	C254.714417,413.878723 253.913315,422.652710 254.005386,432.003357 
z"/>
<path fill="#000000" opacity="1.000000" stroke="none" 
	d="
M653.219482,583.318848 
	C649.972534,583.249023 647.492493,583.228760 647.269348,587.231262 
	C647.064270,590.908630 648.136108,592.660706 651.952942,593.303528 
	C657.850342,594.296753 663.660828,595.824951 669.485474,597.221191 
	C671.774170,597.769897 674.338867,598.367432 673.418579,601.715515 
	C672.532410,604.939636 670.023376,604.279236 667.701050,603.858398 
	C661.809509,602.790833 655.900452,601.804749 650.040833,600.582275 
	C646.635742,599.871948 644.565247,600.482239 643.083130,604.096130 
	C638.582336,615.069824 631.757080,624.547119 622.366150,631.811401 
	C609.623108,641.668823 594.768188,643.532715 579.227234,641.970215 
	C570.053833,641.047791 561.246155,638.532959 552.680420,635.275146 
	C549.662659,634.127380 548.305359,635.119263 546.513550,637.345764 
	C542.772156,641.994812 539.341309,646.982300 534.317688,650.463928 
	C529.681824,653.676941 526.989441,653.483826 522.752319,649.700012 
	C519.354187,646.665344 516.674622,642.998352 514.379333,639.173462 
	C511.922211,635.078918 509.573120,633.861877 504.737640,635.826050 
	C493.230499,640.500427 481.117767,642.755676 468.629303,642.342590 
	C442.357361,641.473694 423.234344,629.559937 412.568207,605.251526 
	C410.612946,600.795410 408.340332,599.663818 403.823700,600.755127 
	C398.175018,602.119934 392.385620,602.909851 386.646912,603.888977 
	C385.176208,604.139893 383.670074,604.220459 382.176056,604.288696 
	C379.852081,604.394897 378.273468,603.321228 377.922699,600.989929 
	C377.549225,598.507935 379.459564,598.036438 381.296417,597.523987 
	C387.564758,595.775146 393.932739,594.556213 400.391327,593.783447 
	C402.042236,593.585876 403.678345,593.242920 405.332794,593.101379 
	C409.217865,592.769104 409.517639,590.228516 409.497711,587.071777 
	C409.474335,583.368713 407.273804,583.154480 404.535645,583.343445 
	C389.566498,584.376526 374.567596,584.123413 359.580170,584.360901 
	C358.084045,584.384644 356.575073,584.390259 355.092072,584.224792 
	C353.598358,584.058044 352.720886,583.070679 352.531799,581.576843 
	C352.330505,579.986572 352.635834,578.534119 354.224304,577.771057 
	C354.956024,577.419556 355.815521,577.132935 356.611664,577.146057 
	C376.254395,577.468933 395.877106,575.245789 415.529877,576.691223 
	C418.394043,576.901855 419.535553,578.038269 419.475677,581.099792 
	C419.324951,588.803711 419.474335,588.795776 426.900146,588.663940 
	C428.059143,588.643433 429.257080,588.613159 430.373627,588.866577 
	C432.636932,589.380371 433.727509,591.112305 433.751984,593.257935 
	C433.779236,595.645996 431.910706,596.085632 429.945740,596.277649 
	C428.303253,596.438110 426.666138,596.699768 425.046631,597.018250 
	C424.614227,597.103394 424.255188,597.561401 423.419189,598.171997 
	C429.008331,610.833862 437.527618,620.625488 450.694244,625.574951 
	C466.463562,631.502625 482.228485,629.272095 497.639801,623.992676 
	C505.837341,621.184570 513.369141,616.875000 520.460144,611.754517 
	C526.332886,607.513733 526.318665,601.782288 525.634644,595.663269 
	C525.388123,593.458313 523.484924,592.835266 521.827576,592.116577 
	C516.468689,589.792725 511.301697,587.110474 506.373444,583.979492 
	C496.086975,577.444336 490.295471,565.027039 492.431488,554.598450 
	C493.283478,550.438721 495.327820,547.212463 498.696289,544.748657 
	C511.960175,535.046753 544.072510,531.595337 559.413696,541.340393 
	C566.877014,546.081238 573.176453,551.806702 572.780090,561.502319 
	C572.354797,571.904846 567.109070,579.828552 558.294250,585.179871 
	C554.617065,587.412231 550.506287,588.943298 546.554199,590.706848 
	C539.832336,593.706238 537.341248,600.015320 540.173950,606.919128 
	C541.083374,609.135681 542.424988,611.047668 544.271667,612.503052 
	C561.522888,626.098999 580.583740,632.306458 602.589478,626.982361 
	C618.180664,623.210388 626.146790,611.921448 632.025635,598.654724 
	C631.063721,596.595520 629.452148,597.132080 628.291504,596.679321 
	C626.311035,595.906677 624.355713,594.984192 624.727051,592.560608 
	C625.093994,590.165527 626.983643,588.965637 629.388245,588.803162 
	C630.377075,588.736328 631.430542,588.698853 632.367737,588.959839 
	C635.839783,589.926758 637.054504,588.357056 636.759705,585.149048 
	C636.533508,582.688049 636.121765,580.244080 635.758545,577.538940 
	C638.404419,575.941223 641.400330,575.978577 644.322998,576.052063 
	C663.634399,576.537720 682.944458,577.077087 702.253174,577.660645 
	C704.612122,577.731873 707.856018,577.118713 707.697205,580.975891 
	C707.555603,584.415955 704.712280,584.418884 702.118958,584.410767 
	C685.961365,584.360413 669.803040,584.346985 653.219482,583.318848 
M527.611328,625.100830 
	C524.428650,627.636414 520.173401,628.709106 517.582764,632.107788 
	C519.754211,636.659790 523.219604,639.778564 526.553711,643.021729 
	C528.292114,644.712646 529.985657,644.809570 531.852295,643.328186 
	C536.458008,639.673035 540.058960,635.243469 543.003357,629.393555 
	C537.787964,627.655884 534.884583,620.961121 527.611328,625.100830 
z"/>
<path fill="#000000" opacity="1.000000" stroke="none" 
	d="
M731.056396,462.047058 
	C731.980225,458.488525 732.945251,455.328400 733.977966,451.946716 
	C731.966980,450.510559 729.753906,451.192810 727.704224,451.139343 
	C720.364380,450.947754 719.050964,449.162872 721.350525,442.324768 
	C721.603271,441.573212 721.767334,440.791809 722.118347,439.478729 
	C717.902222,440.419037 714.229309,439.766968 710.530090,438.811066 
	C706.860901,437.862946 705.814514,436.287354 707.982666,432.847717 
	C710.011292,429.629364 711.702759,426.198517 714.320679,421.449890 
	C706.007385,424.612732 699.907959,429.020050 693.157043,432.302460 
	C690.731873,429.314392 692.593506,426.508331 692.727356,423.882690 
	C694.394226,391.185883 721.141113,377.630066 743.121338,377.783234 
	C759.449463,377.897034 772.559692,388.367371 776.214172,404.419434 
	C780.882629,424.925262 777.918457,444.700684 770.120544,464.029297 
	C765.516602,475.441010 758.487427,484.522583 747.439087,490.233215 
	C745.268921,491.354919 742.729797,493.471863 740.609497,491.504700 
	C738.455261,489.506104 739.787903,486.530334 740.740356,484.008331 
	C741.247925,482.664307 742.567261,481.554321 742.008484,479.909271 
	C740.346008,478.063568 736.766357,481.570557 736.087646,478.046326 
	C735.386658,474.406403 736.290283,470.766541 738.057007,467.438934 
	C738.740967,466.150787 740.352051,465.496246 740.599915,463.782104 
	C737.602356,461.985229 733.693420,466.607147 731.056396,462.047058 
z"/>
<path fill="#000000" opacity="1.000000" stroke="none" 
	d="
M300.486298,378.043030 
	C318.560455,374.888336 333.490387,379.588837 345.175293,393.530731 
	C351.052032,400.542542 354.021423,408.784027 354.811951,417.736237 
	C355.172211,421.815674 353.119690,425.738373 352.740112,429.889008 
	C352.526733,432.222382 349.924042,431.532043 348.147644,430.972870 
	C344.215668,429.735199 340.293793,428.465546 336.408173,427.221863 
	C334.466125,430.157745 336.889771,431.967133 337.390259,434.043854 
	C338.604980,439.084351 337.419800,440.644165 332.355255,439.986115 
	C330.136047,439.697754 327.836273,438.508850 325.815155,440.506531 
	C328.358887,449.074646 328.358887,449.074646 317.336243,450.554230 
	C316.775787,453.837158 320.985626,455.955139 319.845184,459.199432 
	C318.304932,463.581085 314.059204,459.707611 311.053070,462.054779 
	C317.983185,466.847351 313.487640,473.195526 312.921112,478.861267 
	C312.468628,483.386597 308.638245,478.985596 306.159729,479.965240 
	C307.384186,481.565491 308.629333,483.044159 309.704926,484.637268 
	C310.962616,486.500183 313.166321,488.404419 311.264526,490.825592 
	C309.496857,493.075928 306.996094,491.925415 304.764954,491.321106 
	C301.002502,490.302032 297.711792,488.416687 294.766296,485.876801 
	C286.050354,478.361053 280.549561,468.873077 277.244019,457.933807 
	C272.255951,441.426392 271.280273,424.641785 273.437317,407.617889 
	C275.463379,391.627960 285.085266,382.445953 300.486298,378.043030 
z"/>
<path fill="#000000" opacity="1.000000" stroke="none" 
	d="
M409.912415,557.200806 
	C394.981598,551.817078 380.407837,546.580078 365.857574,541.278503 
	C363.593170,540.453491 360.445221,539.852356 361.493073,536.411560 
	C362.500275,533.104370 365.389008,533.881042 367.811523,534.631042 
	C377.507812,537.633057 387.177490,540.721069 396.857422,543.776001 
	C397.936218,544.116516 398.909912,544.927979 400.586243,544.398193 
	C397.337494,540.731445 393.947113,537.418213 391.722137,533.131165 
	C383.812622,517.890991 386.029999,502.799194 392.193207,487.789490 
	C394.410156,482.390472 397.421478,477.409637 401.361267,472.991547 
	C416.210052,456.340088 440.382019,459.601593 450.204498,479.618774 
	C460.856903,501.327301 450.173279,536.170837 426.744690,545.906677 
	C422.019287,547.870300 417.167694,548.568665 411.912598,548.952881 
	C417.941650,551.336243 423.971100,553.718506 429.999512,556.103455 
	C431.703339,556.777588 433.454224,557.358093 435.092102,558.166748 
	C436.718750,558.969849 438.643097,559.843689 437.814667,562.228760 
	C437.026428,564.497986 435.436249,565.875793 432.837799,565.338623 
	C429.078339,564.561401 425.469818,563.344482 421.934998,561.808105 
	C418.120361,560.150146 414.168945,558.806885 409.912415,557.200806 
M416.915985,491.583801 
	C415.564575,498.565826 417.992432,503.922760 423.180511,505.406158 
	C427.878326,506.749359 433.107117,503.182922 435.518372,496.956360 
	C435.876556,496.031433 436.170441,495.068848 436.372772,494.098419 
	C437.342773,489.445557 434.556366,483.634888 430.586060,481.950165 
	C426.990356,480.424377 422.546844,482.193726 419.533661,486.497131 
	C418.593170,487.840332 417.951874,489.393066 416.915985,491.583801 
z"/>
<path fill="#000000" opacity="1.000000" stroke="none" 
	d="
M468.837952,1014.967285 
	C456.403473,1016.533264 444.459778,1016.589111 432.594116,1014.076538 
	C421.277313,1011.680176 410.819489,1007.484253 401.064178,1001.000854 
	C389.279266,993.168884 376.516815,989.074158 362.586121,995.959412 
	C354.947449,999.734985 347.344757,998.195190 339.721344,995.939941 
	C327.775635,992.405884 316.002319,988.382996 304.511719,983.557861 
	C302.978821,982.914185 301.443481,982.253967 299.982300,981.465942 
	C293.247437,977.834106 286.748596,973.739380 279.295868,971.576965 
	C276.726715,970.831604 274.987793,968.906982 274.524628,966.257935 
	C274.049744,963.541748 276.211212,962.596497 278.193756,961.591675 
	C281.499390,959.916382 281.153870,957.696350 279.200745,955.084473 
	C277.750061,953.144592 275.054779,952.158020 274.644196,949.078735 
	C276.734283,948.276489 278.104431,949.817017 279.502380,950.606567 
	C294.161072,958.885315 308.998688,966.710510 325.059235,972.070312 
	C351.680573,980.954712 379.028351,986.518677 406.710938,990.708984 
	C421.692566,992.976746 436.727112,994.740601 451.817108,996.084717 
	C458.259094,996.658508 464.123596,998.783508 469.265930,1002.857239 
	C471.742218,1004.818848 474.429718,1006.533630 477.576782,1007.320679 
	C481.096985,1008.200989 484.146576,1007.972656 486.145538,1004.306152 
	C487.975525,1000.949768 491.484039,1000.557251 494.753845,1000.053772 
	C505.554596,998.390442 516.349365,999.268188 527.136047,1000.341492 
	C530.942200,1000.720276 534.773865,1000.915833 538.551025,1001.481079 
	C540.404724,1001.758362 542.842590,1001.710083 543.426758,1004.203735 
	C543.996521,1006.635986 542.502930,1008.414673 540.744446,1009.742676 
	C534.801453,1014.230774 527.887512,1016.139465 520.602661,1015.979431 
	C510.464233,1015.756836 500.334991,1015.019470 490.208344,1014.396545 
	C483.214691,1013.966248 476.235626,1013.504089 468.837952,1014.967285 
z"/>
<path fill="#000000" opacity="1.000000" stroke="none" 
	d="
M929.820312,830.102051 
	C934.542908,835.033569 934.430176,841.090149 929.711792,846.276855 
	C924.066711,852.482239 916.979248,855.590332 908.623169,856.316467 
	C897.793274,857.257629 886.982422,856.528259 876.195007,856.065002 
	C861.385315,855.428955 846.577759,855.163574 831.762329,854.968384 
	C825.498108,854.885925 825.208191,854.528748 826.580017,848.265991 
	C827.824951,842.582397 829.424622,836.975647 830.627625,831.284180 
	C831.183350,828.654968 832.502014,827.708618 835.078247,827.689453 
	C862.714172,827.484009 890.349365,827.180115 917.985474,827.022400 
	C921.984863,826.999634 925.942505,827.784058 929.820312,830.102051 
z"/>
<path fill="#000000" opacity="1.000000" stroke="none" 
	d="
M123.249695,827.793091 
	C147.037125,827.796875 170.351990,827.891357 193.666199,827.807800 
	C198.185593,827.791626 200.219528,829.256531 200.503235,834.069397 
	C200.784241,838.836243 202.024063,843.577881 203.160080,848.253540 
	C204.133850,852.261292 203.753693,854.326416 198.753204,854.517273 
	C179.132828,855.265991 159.518661,856.264221 139.920319,857.465515 
	C130.574677,858.038330 121.304504,858.435486 112.119377,856.203552 
	C108.195030,855.250000 104.472687,853.813232 101.391411,851.116882 
	C94.517067,845.101501 95.438713,836.552856 103.434380,832.305969 
	C109.469879,829.100220 116.229912,828.891174 123.249695,827.793091 
z"/>
<path fill="#000000" opacity="1.000000" stroke="none" 
	d="
M520.140198,660.887878 
	C529.300781,661.268921 537.900452,660.778442 546.361572,658.614380 
	C550.926270,657.446960 555.318787,655.996765 558.587097,652.336853 
	C559.963989,650.794922 561.603333,650.195679 563.469543,651.263000 
	C565.355225,652.341553 565.572083,654.238647 565.106506,656.091797 
	C563.802856,661.280029 560.132324,665.086304 555.843628,667.390564 
	C537.587585,677.199585 518.960876,677.290222 500.520050,667.744385 
	C496.153107,665.483887 493.076904,661.683777 491.537231,656.824402 
	C490.967529,655.026245 490.205750,653.258301 492.261108,651.945923 
	C494.362732,650.604004 496.158691,651.628845 497.650146,653.053833 
	C503.834045,658.962219 511.490967,660.611572 520.140198,660.887878 
z"/>
<path fill="#000000" opacity="1.000000" stroke="none" 
	d="
M208.362244,870.921387 
	C212.754913,872.861755 212.939728,876.421021 213.187012,879.618347 
	C198.749039,874.730713 184.560547,873.070068 169.964554,878.701599 
	C170.223511,879.712585 170.192001,880.319336 170.479370,880.603333 
	C176.019241,886.077576 175.918320,886.426392 168.199860,889.120056 
	C161.900269,891.318481 155.579391,893.346497 148.769577,892.965698 
	C145.909653,892.805786 143.131943,892.321350 140.687393,890.751221 
	C138.138748,889.114136 136.422150,887.073486 137.490051,883.694824 
	C137.827652,882.626770 138.117340,881.233704 137.716339,880.293213 
	C135.405457,874.873047 139.087952,874.265625 142.763626,874.072083 
	C164.484421,872.928833 186.211685,871.908813 208.362244,870.921387 
z"/>
<path fill="#000000" opacity="1.000000" stroke="none" 
	d="
M702.729004,346.895264 
	C698.724976,349.775848 695.175781,349.561615 691.355164,347.047791 
	C684.154480,342.309998 676.808044,337.790558 669.462830,333.277008 
	C665.128662,330.613800 664.856873,326.369659 665.687012,322.295288 
	C666.602844,317.800201 670.403564,316.731537 674.629028,316.909637 
	C679.272949,317.105377 683.928406,317.066711 688.567078,317.334259 
	C693.447083,317.615723 697.023682,321.136139 696.829407,326.139557 
	C696.642212,330.958923 698.913940,335.197388 699.203796,339.850403 
	C699.294556,341.306702 700.469116,342.105743 701.725830,342.712860 
	C703.499207,343.569550 704.366455,344.756409 702.729004,346.895264 
z"/>
<path fill="#000000" opacity="1.000000" stroke="none" 
	d="
M449.307037,448.593933 
	C452.192322,443.105927 450.869598,436.905151 453.169678,431.471497 
	C461.110565,435.628235 464.336853,470.430634 457.629822,481.017761 
	C445.714264,467.005920 437.547028,450.758362 426.302643,436.499359 
	C429.242889,434.573456 430.880249,436.232208 432.479309,437.076202 
	C437.051453,439.489319 441.249847,442.427032 444.849152,446.227173 
	C445.945709,447.384918 446.666199,449.647980 449.307037,448.593933 
z"/>
<path fill="#000000" opacity="1.000000" stroke="none" 
	d="
M593.870239,444.307373 
	C594.983337,439.564697 594.239258,434.890472 597.013428,430.011322 
	C601.378906,435.604279 600.632202,442.802063 604.864929,448.321472 
	C611.754700,444.430664 615.707397,436.190887 624.274658,434.661743 
	C624.073303,438.738373 601.900208,475.597443 597.159729,479.587891 
	C592.541565,468.099213 593.812012,456.364471 593.870239,444.307373 
z"/>
<path fill="#000000" opacity="1.000000" stroke="none" 
	d="
M666.840088,561.727661 
	C679.177734,559.268250 691.086853,556.853577 702.995422,554.436707 
	C703.321777,554.370483 703.639648,554.230713 703.967224,554.207642 
	C706.327209,554.041260 709.430847,552.613281 710.231750,556.140503 
	C711.093201,559.934021 707.593018,560.238770 705.140259,560.888306 
	C701.121643,561.952515 697.005066,562.641113 692.966675,563.637573 
	C673.732971,568.383179 654.487549,573.064819 634.781799,575.478333 
	C633.150330,575.678101 631.460571,575.770508 629.837463,575.578552 
	C627.755005,575.332397 626.658142,573.946899 626.558777,571.813599 
	C626.459473,569.679993 627.828186,568.857178 629.593567,568.511414 
	C633.510071,567.744385 637.441223,567.051270 641.367615,566.334778 
	C649.715088,564.811584 658.063416,563.292725 666.840088,561.727661 
z"/>
<path fill="#000000" opacity="1.000000" stroke="none" 
	d="
M373.151978,557.745972 
	C390.174194,561.384155 406.920349,564.164062 423.706085,566.731384 
	C425.829926,567.056274 427.899414,567.756104 429.981598,568.327576 
	C431.787476,568.823181 433.693054,569.351074 433.414856,571.820557 
	C433.110779,574.520020 431.204498,575.213684 428.799347,575.374329 
	C422.045715,575.825256 415.552704,574.089905 409.033539,572.897705 
	C391.686615,569.725403 374.518127,565.693604 357.449493,561.267212 
	C354.847076,560.592346 350.452881,560.773132 351.510895,556.421265 
	C352.516022,552.286865 356.303619,553.921082 359.117310,554.507324 
	C363.679199,555.457825 368.197968,556.615417 373.151978,557.745972 
z"/>
<path fill="#000000" opacity="1.000000" stroke="none" 
	d="
M679.596802,538.532166 
	C683.578430,537.145569 687.182983,535.876770 690.782593,534.593811 
	C693.247192,533.715332 695.955811,532.959473 697.263611,535.973145 
	C698.733459,539.360229 695.691162,540.252441 693.437439,541.126282 
	C677.646912,547.249023 661.818054,553.273010 646.015503,559.364990 
	C640.903870,561.335632 635.839783,563.429138 630.742554,565.437744 
	C628.869080,566.175964 626.930603,566.861633 625.018799,565.622009 
	C623.755249,564.802734 622.508484,563.819641 622.723877,562.067017 
	C622.962952,560.120911 624.600952,559.389465 626.116638,558.763794 
	C634.405884,555.341675 642.662537,551.826599 651.050415,548.661560 
	C660.372192,545.144104 669.822998,541.968445 679.596802,538.532166 
z"/>
<path fill="#000000" opacity="1.000000" stroke="none" 
	d="
M663.024048,421.193451 
	C669.894653,413.174500 677.070435,406.080994 685.847961,401.093842 
	C687.424744,402.591125 687.233032,403.602325 686.726013,404.477722 
	C681.550232,413.414062 675.941895,422.040588 668.070251,428.903046 
	C666.281311,430.462616 664.250671,433.166168 661.698181,431.377655 
	C658.735229,429.301453 660.650574,426.272705 661.629456,423.680817 
	C661.919373,422.913147 662.416992,422.223907 663.024048,421.193451 
z"/>
<path fill="#000000" opacity="1.000000" stroke="none" 
	d="
M378.328003,413.641052 
	C381.695312,417.341583 384.850433,420.757751 387.860535,424.297272 
	C388.925873,425.550018 389.962067,427.197632 388.617401,428.792725 
	C387.577118,430.026733 386.003052,429.909210 384.446594,429.504242 
	C377.140076,427.603088 362.834351,410.680908 362.152222,402.170197 
	C368.349792,405.267181 372.991516,409.664581 378.328003,413.641052 
z"/>
<path fill="#000000" opacity="1.000000" stroke="none" 
	d="
M585.558228,1000.871338 
	C582.031311,1002.665283 578.548401,1003.707581 575.782593,1006.307007 
	C574.077759,1007.909363 571.729614,1008.533386 569.370422,1007.187256 
	C570.881714,999.241455 576.985291,995.244690 584.701904,997.105713 
	C587.016602,997.664001 588.164856,998.617676 585.558228,1000.871338 
z"/>
<path fill="#000000" opacity="1.000000" stroke="none" 
	d="
M516.006836,524.630066 
	C515.696106,522.243225 516.173584,520.114441 518.448975,520.382263 
	C521.176575,520.703247 524.019348,521.944580 525.121521,524.791199 
	C525.990601,527.035767 524.233887,528.454041 522.405396,529.442139 
	C519.778809,530.861755 518.466248,529.058411 517.254761,527.187561 
	C516.809814,526.500427 516.487976,525.733459 516.006836,524.630066 
z"/>
<path fill="#000000" opacity="1.000000" stroke="none" 
	d="
M602.054443,587.800171 
	C605.764282,588.286438 608.394470,589.872925 607.502991,593.541016 
	C606.805054,596.412781 603.965576,596.713440 601.360291,596.064026 
	C599.488586,595.597595 598.029053,594.335083 597.875305,592.334717 
	C597.678040,589.767822 599.450684,588.548462 602.054443,587.800171 
z"/>
<path fill="#000000" opacity="1.000000" stroke="none" 
	d="
M463.578308,592.597717 
	C463.149445,593.348633 462.916504,593.815369 462.551971,594.129089 
	C460.573059,595.832336 458.399200,597.035583 455.816681,595.539795 
	C454.174652,594.588745 453.791595,593.008301 454.496826,591.234497 
	C455.381287,589.009827 457.059082,587.643433 459.431274,587.812866 
	C461.984863,587.995239 463.767853,589.335815 463.578308,592.597717 
z"/>
<path fill="#000000" opacity="1.000000" stroke="none" 
	d="
M609.245422,991.958374 
	C613.229065,991.373169 616.786255,990.236816 620.501099,991.446045 
	C617.482544,995.596375 609.619080,997.103577 603.951599,994.583679 
	C604.826233,992.217590 607.159607,992.699646 609.245422,991.958374 
z"/>
<path fill="#000000" opacity="1.000000" stroke="none" 
	d="
M446.057922,575.902832 
	C448.867584,574.339294 450.866455,575.115906 452.398865,577.267639 
	C453.319275,578.559937 453.674042,580.111877 452.466064,581.385132 
	C450.988617,582.942444 448.967773,583.520630 446.991608,582.721069 
	C443.370056,581.255737 443.309113,578.872620 446.057922,575.902832 
z"/>
<path fill="#000000" opacity="1.000000" stroke="none" 
	d="
M490.570190,534.158081 
	C490.059570,531.205688 490.027649,527.902832 493.256226,528.212891 
	C495.806641,528.457703 497.302826,531.809082 497.872345,534.535828 
	C498.146423,535.847900 496.713226,536.882629 495.342834,537.238586 
	C492.945190,537.861511 491.586273,536.537659 490.570190,534.158081 
z"/>
<path fill="#000000" opacity="1.000000" stroke="none" 
	d="
M598.585632,568.116943 
	C595.758545,568.170349 592.525757,568.706116 592.875183,564.969666 
	C593.200867,561.488586 596.373047,561.551453 599.093811,561.744385 
	C600.701843,561.858521 602.058655,562.628052 602.268066,564.348816 
	C602.553223,566.692322 600.657593,567.332825 598.585632,568.116943 
z"/>
<path fill="#000000" opacity="1.000000" stroke="none" 
	d="
M568.354614,531.467529 
	C570.454041,529.735901 571.826355,530.273254 572.136475,532.465149 
	C572.522705,535.195374 572.929443,538.036621 571.372192,540.609070 
	C565.860291,539.563416 565.260010,537.862366 568.354614,531.467529 
z"/>
<path fill="#000000" opacity="1.000000" stroke="none" 
	d="
M612.070496,575.860229 
	C615.567078,576.141663 617.711365,577.555847 616.762512,580.926758 
	C616.026428,583.541443 613.607605,583.608826 611.429077,582.844482 
	C608.083008,581.670471 608.220337,578.632568 612.070496,575.860229 
z"/>
<path fill="#000000" opacity="1.000000" stroke="none" 
	d="
M466.668915,567.117676 
	C465.608215,567.668884 464.854034,568.157959 464.071808,568.207947 
	C461.672211,568.361389 458.948029,568.360779 458.966461,565.081116 
	C458.982239,562.271545 461.416016,561.693054 463.701233,561.962036 
	C466.487946,562.290100 468.661102,563.373901 466.668915,567.117676 
z"/>
<path fill="#000000" opacity="1.000000" stroke="none" 
	d="
M638.638916,991.297852 
	C635.743774,992.092102 633.225342,992.329773 630.489807,990.568359 
	C633.526489,987.210632 636.930969,988.113647 640.122131,988.247864 
	C641.123169,989.996399 639.746277,990.428528 638.638916,991.297852 
z"/>
</svg>